/* XPM */
static char *b45c134e3d1240bced19c65f97440a1c[] = {
/* columns rows colors chars-per-pixel */
"16 16 41 1 ",
"  c #7A1664",
". c #751668",
"X c #691874",
"o c #641C7A",
"O c #AB2323",
"+ c #BC343F",
"@ c #C43423",
"# c #C73623",
"$ c #C33839",
"% c #C73A39",
"& c #D64025",
"* c #D74125",
"= c #DB4426",
"- c #DC4527",
"; c #DD462A",
": c #D9452E",
"> c #D9442F",
", c #D34133",
"< c #8E1C57",
"1 c #82185E",
"2 c #9D234E",
"3 c #AB2A47",
"4 c #FE7D55",
"5 c #FD7C58",
"6 c #FD537D",
"7 c #FE6D67",
"8 c #FD656C",
"9 c #FE8150",
"0 c #59278B",
"q c #FB3A99",
"w c #DD2DB0",
"e c #F131A3",
"r c #FD4A85",
"t c #BC2FCE",
"y c #B234DE",
"u c #CD29C0",
"i c #9C53FA",
"p c #A348F1",
"a c #9464FC",
"s c #8D70FD",
"d c None",
/* pixels */
"ddddddyuer8ddddd",
"dddddiddd674dddd",
"ddddsptwqdd9dddd",
"ddddaddddddddddd",
"dddddddddd5ddddd",
"dddddddddddddddd",
"dddddddddddddddd",
"dddddddddddddddd",
"dddddddddddddddd",
"dddddddddddddddd",
"ddd0dddddddddddd",
"dddddddddddddddd",
"ddddddd$:-dddddd",
"dddo.<3%:-@Odddd",
"dddX ddd;*@ddddd",
"dddd12+,;*dddddd"
};
