/* XPM */
static char *a932146e407a42c5f5587946d41c8785[] = {
/* columns rows colors chars-per-pixel */
"64 64 163 2 ",
"   c #7C0523",
".  c #6D156D",
"X  c #751566",
"o  c #7B1662",
"O  c #721569",
"+  c #6A1771",
"@  c #661976",
"#  c #681874",
"$  c #621C7C",
"%  c #840A23",
"&  c #8A0E23",
"*  c #8F1123",
"=  c #931423",
"-  c #9B1923",
";  c #A21E23",
":  c #A62023",
">  c #AC2423",
",  c #B42923",
"<  c #BA2D23",
"1  c #B02623",
"2  c #BF3023",
"3  c #BD343E",
"4  c #C43423",
"5  c #C93723",
"6  c #CD3A23",
"7  c #D33D23",
"8  c #CD3E36",
"9  c #C1373D",
"0  c #C6393A",
"q  c #C93C39",
"w  c #D03F35",
"e  c #D74124",
"r  c #DC4426",
"t  c #DC462B",
"y  c #D54328",
"u  c #D44232",
"i  c #D84430",
"p  c #E3533A",
"a  c #F2693B",
"s  c #8D1C57",
"d  c #81175E",
"f  c #85185B",
"g  c #891A59",
"h  c #921E54",
"j  c #9D234E",
"k  c #972051",
"l  c #992150",
"z  c #AC2B46",
"x  c #A3264B",
"c  c #A72849",
"v  c #A92948",
"b  c #B22E44",
"n  c #B63042",
"m  c #B93240",
"M  c #D93876",
"N  c #F64B46",
"B  c #F86248",
"V  c #FD7A47",
"C  c #FD7B49",
"Z  c #FB7146",
"A  c #FE7D54",
"S  c #FE765E",
"D  c #FE7A5A",
"F  c #FE5C74",
"G  c #FE547B",
"H  c #FC577A",
"J  c #F54B7D",
"K  c #FE6D66",
"L  c #FE646D",
"P  c #FC6B6A",
"I  c #F96667",
"U  c #FE7262",
"Y  c #FC6573",
"T  c #F76473",
"R  c #FF814E",
"E  c #FE8152",
"W  c #FE825A",
"Q  c #601F80",
"!  c #5D2284",
"~  c #5A268A",
"^  c #59298D",
"/  c #572B8F",
"(  c #562D92",
")  c #543197",
"_  c #533399",
"`  c #F93F8C",
"'  c #FD3C92",
"]  c #FE359B",
"[  c #F73798",
"{  c #DB2BAD",
"}  c #DA31A9",
"|  c #CC27BC",
" . c #C42DBE",
".. c #CD2AB7",
"X. c #DB27B6",
"o. c #D52AB9",
"O. c #D230B4",
"+. c #E62AAE",
"@. c #E92CA7",
"#. c #F32FA3",
"$. c #F52EA5",
"%. c #F134A3",
"&. c #FC30A0",
"*. c #FA3AA1",
"=. c #E02AB1",
"-. c #FE4687",
";. c #FD4C83",
":. c #FE438A",
">. c #FD498D",
",. c #FD5684",
"<. c #FD4091",
"1. c #8439C7",
"2. c #BB2CCC",
"3. c #B12FCC",
"4. c #B933CB",
"5. c #BA2DD4",
"6. c #BC35D3",
"7. c #B431DD",
"8. c #B835DB",
"9. c #AB34D6",
"0. c #A93BE2",
"q. c #AF37E8",
"w. c #AC3CEA",
"e. c #B236E3",
"r. c #AA3EF1",
"t. c #C32ACB",
"y. c #C929C4",
"u. c #9D4DF4",
"i. c #9E4EFB",
"p. c #9F46F4",
"a. c #9B54FD",
"s. c #965CFB",
"d. c #9959FC",
"f. c #9A53F4",
"g. c #A543EC",
"h. c #AD46E6",
"j. c #A34AF6",
"k. c #A544F9",
"l. c #A24BFC",
"z. c #A84CF3",
"x. c #8D62F5",
"c. c #8E6AF6",
"v. c #8D6EFD",
"b. c #9363FC",
"n. c #916AFD",
"m. c #9762FA",
"M. c #8B75FF",
"N. c #897BFD",
"B. c #8979FB",
"V. c #7D89F8",
"C. c #7C94FB",
"Z. c #7A9DFB",
"A. c #7699F9",
"S. c #7DA4FD",
"D. c #75ABFB",
"F. c #78A8FD",
"G. c #6EB8FA",
"H. c #71B3FA",
"J. c #8483FF",
"K. c #828CFE",
"L. c #8587FA",
"P. c #8098FE",
"I. c None",
/* pixels */
"I.I.I.I.I.I.I.I.I.I.I.I.I.I.I.I.I.I.I.I.I.I.I.I.I.I.I.I.I.I.I...{ @.%.[ ` :.J J I.I.I.I.I.I.I.I.I.I.I.I.I.I.I.I.I.I.I.I.I.I.I.I.",
"I.I.I.I.I.I.I.I.I.I.I.I.I.I.I.I.I.I.I.I.I.I.I.I.I.I.I.3.2.t.o.X.+.@.&.] ' :.;.G F F I I.I.I.I.I.I.I.I.I.I.I.I.I.I.I.I.I.I.I.I.I.",
"I.I.I.I.I.I.I.I.I.I.I.I.I.I.I.I.I.I.I.I.I.I.I.I.I.0.7.5.t.y.o.X.+.$.] ] ' -.G G F L K U I.I.I.I.I.I.I.I.I.I.I.I.I.I.I.I.I.I.I.I.",
"I.I.I.I.I.I.I.I.I.I.I.I.I.I.I.I.I.I.I.I.I.I.I.p.r.q.7.5.t.y.o.I.I.I.I.I.I.I.,.G Y L K U S I.I.I.I.I.I.I.I.I.I.I.I.I.I.I.I.I.I.I.",
"I.I.I.I.I.I.I.I.I.I.I.I.I.I.I.I.I.I.I.I.I.d.i.k.r.e.8.6.I.I.I.I.I.I.I.I.I.I.I.I.T P K U D A I.I.I.I.I.I.I.I.I.I.I.I.I.I.I.I.I.I.",
"I.I.I.I.I.I.I.I.I.I.I.I.I.I.I.I.I.I.I.c.s.a.l.k.w.I.I.I.I.I.I.I.I.I.I.I.I.J G F T P U U D A A I.I.I.I.I.I.I.I.I.I.I.I.I.I.I.I.I.",
"I.I.I.I.I.I.I.I.I.I.I.I.I.I.I.I.I.I.v.n.s.a.l.z.I.I.I.I.I.I.I.I.I.I.` ` -.;.G F L P I.S D A E I.I.I.I.I.I.I.I.I.I.I.I.I.I.I.I.I.",
"I.I.I.I.I.I.I.I.I.I.I.I.I.I.I.I.I.M.v.b.s.a.I.I.I.I.I.I.I.I.I.@.#.] ' ' -.G G F L K I.I.A E R I.I.I.I.I.I.I.I.I.I.I.I.I.I.I.I.I.",
"I.I.I.I.I.I.I.I.I.I.I.I.I.I.I.V.N.M.v.b.m.I.I.I.I.I.I.I.| X.=.@.&.] ' :.;.,.H Y P K I.I.W E R I.I.I.I.I.I.I.I.I.I.I.I.I.I.I.I.I.",
"I.I.I.I.I.I.I.I.I.I.I.I.I.I.V.J.J.M.n.I.I.I.I.I.9.5.4.y.y.O.} @.&.] ' >.I.I.I.I.P K I.I.E E R I.I.I.I.I.I.I.I.I.I.I.I.I.I.I.I.I.",
"I.I.I.I.I.I.I.I.I.I.I.I.I.C.C.J.N.M.I.I.I.u.g.w.e.6.4. ...{ +.%.*.I.I.I.I.I.I.I.K I.I.I.E E R I.I.I.I.I.I.I.I.I.I.I.I.I.I.I.I.I.",
"I.I.I.I.I.I.I.I.I.I.I.I.A.Z.K.J.N.I.x.d.l.l.r.q.7.4.t.y.o.I.I.I.I.I.I.I.I.I.I.I.K I.I.I.E R R I.I.I.I.I.I.I.I.I.I.I.I.I.I.I.I.I.",
"I.I.I.I.I.I.I.I.I.I.I.I.Z.P.K.J.I.c.b.a.a.k.r.e.8.6.I.I.I.I.I.I.I.I.I.I.I.I.I.I.K I.I.I.E R R I.I.I.I.I.I.I.I.I.I.I.I.I.I.I.I.I.",
"I.I.I.I.I.I.I.I.I.I.I.F.S.I.I.I.I.n.b.a.l.k.h.I.I.I.I.I.I.I.I.I.I.I.I.I.I.I.I.I.U I.I.I.E R R I.I.I.I.I.I.I.I.I.I.I.I.I.I.I.I.I.",
"I.I.I.I.I.I.I.I.I.I.F.F.I.I.I.I.I.n.m.I.I.I.I.I.I.I.I.I.I.I.I.I.I.I.I.I.I.I.I.I.U I.I.I.R R I.I.I.I.I.I.I.I.I.I.I.I.I.I.I.I.I.I.",
"I.I.I.I.I.I.I.I.I.D.F.I.I.I.I.I.I.n.I.I.I.I.I.I.I.I.I.I.I.I.I.I.I.I.I.I.I.I.I.I.K I.I.A E E I.I.I.I.I.I.I.I.I.I.I.I.I.I.I.I.I.I.",
"I.I.I.I.I.I.I.I.I.D.I.I.I.I.I.I.I.n.I.I.I.I.I.I.I.I.I.I.I.I.I.I.I.I.I.I.I.I.I.I.U I.I.E E I.I.I.I.I.I.I.I.I.I.I.I.I.I.I.I.I.I.I.",
"I.I.I.I.I.I.I.I.H.I.I.I.I.I.I.I.I.m.I.I.I.I.I.I.I.I.I.I.I.I.I.I.B I.I.I.I.I.I.I.S I.A E E I.I.I.I.I.I.I.I.I.I.I.I.I.I.I.I.I.I.I.",
"I.I.I.I.I.I.I.I.I.I.I.I.I.I.I.I.I.b.I.I.I.I.I.I.I.I.I.I.E I.I.I.I.I.I.I.I.I.I.I.S D E E I.I.I.I.I.I.I.I.I.I.I.I.I.I.I.I.I.I.I.I.",
"I.I.I.I.I.I.I.I.I.I.I.I.I.I.I.I.b.m.I.I.I.I.I.I.I.I.I.I.I.I.I.I.I.N I.I.I.I.I.I.D D E I.I.I.I.I.I.I.I.I.I.I.I.I.I.I.I.I.I.I.I.I.",
"I.I.I.I.I.I.I.I.I.I.I.I.I.I.I.I.m.s.I.I.I.I.I.I.I.I.I.I.I.I.I.I.I.I.I.I.I.I.I.I.S A W I.I.I.I.I.I.I.I.I.I.I.I.I.I.I.I.I.I.I.I.I.",
"I.I.I.I.I.I.I.I.I.I.I.I.I.I.I.I.s.s.I.I.I.I.I.I.I.I.I.I.I.C Z B I.I.I.I.I.I.I.I.D W I.I.I.I.I.I.I.I.I.I.I.I.I.I.I.I.I.I.I.I.I.I.",
"I.I.I.I.I.I.I.I.I.I.I.I.I.I.I.I.s.I.I.I.I.I.I.I.I.I.I.I.I.V I.I.I.I.I.I.I.I.I.I.D I.I.I.I.I.I.I.I.I.I.I.I.I.I.I.I.I.I.I.I.I.I.I.",
"I.I.I.I.I.I.I.I.I.I.I.I.I.I.I.I.s.I.I.I.I.I.I.I.I.I.I.I.I.C I.I.I.I.I.I.I.I.I.I.D I.I.I.I.I.I.I.I.I.I.I.I.I.I.I.I.I.I.I.I.I.I.I.",
"I.I.I.I.I.I.I.I.I.I.I.Z.L.B.I.I.d.I.I.I.I.I.I.I.I.I.I.I.C I.I.I.I.I.I.I.I.I.I.I.p I.I.I.I.I.I.I.I.I.I.I.I.I.I.I.I.I.I.I.I.I.I.I.",
"I.I.I.I.I.I.I.I.I.H.I.I.I.I.d.I.d.I.I.I.I.I.I.I.U S E R C I.I.I.I.I.I.I.I.I.I.i i I.I.I.I.I.I.I.I.I.I.I.I.I.I.I.I.I.I.I.I.I.I.I.",
"I.I.I.I.I.I.I.I.G.I.I.I.I.I.f.I.d.I.I.I.I.I.I.Y I.I.I.R a y 4 I.I.I.I.I.I.I.I.i t I.I.I.I.I.I.I.I.I.I.I.I.I.I.I.I.I.I.I.I.I.I.I.",
"I.I.I.I.I.I.I.I.G.I.I.I.I.I.u.h.h.I.I.I.I.;.H I.I.I.I.I.I.I.2 I.I.I.I.I.I.I.I.t i I.I.I.I.I.I.I.I.I.I.I.I.I.I.I.I.I.I.I.I.I.I.I.",
"I.I.I.I.I.I.I.I.H.I.I.I.I.I.f.0.4. .{ %.<.;.I.I.I.I.I.I.I.I.< I.I.I.I.I.I.I.I.i t I.I.I.I.I.I.I.I.I.I.I.I.I.I.I.I.I.I.I.I.I.I.I.",
"I.I.I.I.I.I.I.I.I.D.C.I.c.I.I.I.u.I.I.[ <.I.I.I.I.I.I.I.I.I., I.I.I.I.I.I.I.I.t t I.I.I.I.I.I.I.I.I.I.I.I.I.I.I.I.I.I.I.I.I.I.I.",
"I.I.I.I.I.I.I.I.I.I.I.I.I.I.I.I.i.I.I.I.M I.I.I.I.I.I.I.I.I.1 : I.I.I.I.I.I.I.t t I.I.I.I.I.I.I.I.I.I.I.I.I.I.I.I.I.I.I.I.I.I.I.",
"I.I.I.I.I.I.I.I.I.I.I.I.I.I.I.i.u.I.I.I.x I.I.I.I.I.I.I.I.I.> ; I.I.I.I.I.I.I.i t I.I.I.I.I.I.I.I.I.I.I.I.I.I.I.I.I.I.I.I.I.I.I.",
"I.I.I.I.I.I.I.I.I.I.I.I.I.I.I.u.j.I.I.I.v I.I.I.I.I.I.I.I.I.> I.I.I.I.I.I.I.I.t t I.I.I.I.I.I.I.I.I.I.I.I.I.I.I.I.I.I.I.I.I.I.I.",
"I.I.I.I.I.I.I.I.I.I.I.I.I.I.I.i.j.I.I.I.z I.I.I.I.I.I.I.4 < I.I.I.I.I.I.I.I.I.t t I.I.I.I.I.I.I.I.I.I.I.I.I.I.I.I.I.I.I.I.I.I.I.",
"I.I.I.I.I.I.I.I.I.I.I.I.I.I.I.j.I.I.I.I.n m 8 i I.I.I.6 4 I.I.I.I.I.I.I.I.I.I.t t I.I.I.I.I.I.I.I.I.I.I.I.I.I.I.I.I.I.I.I.I.I.I.",
"I.I.I.I.I.I.I.I.I.I.I.I.I.I.I.j.I.I.I.I.I.I.I.i t r y 6 I.I.I.I.I.I.I.I.I.I.I.t t I.I.I.I.I.I.I.I.I.I.I.I.I.I.I.I.I.I.I.I.I.I.I.",
"I.I.I.I.I.I.I.I.I.I.I.I.I.I.I.1.I.I.I.I.I.I.I.i I.I.7 7 I.I.I.I.I.I.I.I.I.I.I.t t I.I.I.I.I.I.I.I.I.I.I.I.I.I.I.I.I.I.I.I.I.I.I.",
"I.I.I.I.I.I.I.I.I.I.I.I.I.I.I.~ I.I.I.I.I.I.u I.I.I.I.5 I.I.I.I.I.I.I.I.I.I.I.t t I.I.I.I.I.I.I.I.I.I.I.I.I.I.I.I.I.I.I.I.I.I.I.",
"I.I.I.I.I.I.I.I.I.I.I.I.I.I.~ ~ I.I.I.I.I.I.u I.I.I.I.5 I.I.I.I.I.I.I.I.I.I.I.t I.I.I.I.I.I.I.I.I.I.I.I.I.I.I.I.I.I.I.I.I.I.I.I.",
"I.I.I.I.I.I.I.I.I.I.I.I.I.I.^ ! I.I.I.I.I.u I.I.I.I.I.2 I.I.I.I.I.I.I.I.I.I.I.t I.I.I.I.I.I.I.I.I.I.I.I.I.I.I.I.I.I.I.I.I.I.I.I.",
"I.I.I.I.I.I.I.I.I.I.I.I.I./ ~ ! I.I.I.I.0 u I.I.I.I.I.< I.I.I.I.I.I.I.I.I.I.I.t I.I.I.I.I.I.I.I.I.I.I.I.I.I.I.I.I.I.I.I.I.I.I.I.",
"I.I.I.I.I.I.I.I.I.I.I.I.( / ~ ! I.I.I.I.I.I.I.I.I.I.I.I.I.- & I.I.I.I.I.I.I.I.t I.I.I.I.I.I.I.I.I.I.I.I.I.I.I.I.I.I.I.I.I.I.I.I.",
"I.I.I.I.I.I.I.I.I.I.I.I.( I.I.! I.I.I.I.I.I.I.I.I.I.I.I.I.I.I.I.I.I.I.I.I.I.I.t I.I.I.I.I.I.I.I.I.I.I.I.I.I.I.I.I.I.I.I.I.I.I.I.",
"I.I.I.I.I.I.I.I.I.I.I.) ( I.! Q I.I.I.I.I.I.I.I.I.I.I.I.I.I.I.I.I.I.I.I.I.I.I.t I.I.I.I.I.I.I.I.I.I.I.I.I.I.I.I.I.I.I.I.I.I.I.I.",
"I.I.I.I.I.I.I.I.I.I.I._ ( I.! Q I.I.I.I.I.I.I.I.I.I.I.I.I.I.I.  I.I.I.I.I.I.I.t I.I.I.I.I.I.I.I.I.I.I.I.I.I.I.I.% I.I.I.I.I.I.I.",
"I.I.I.I.I.I.I.I.I.I._ ( I.I.! Q I.I.I.I.I.I.I.I.I.I.I.I.I.I.  I.I.I.I.I.I.I.I.r I.I.I.I.I.I.I.I.I.I.I.I.I.I.I.  I.I.I.I.I.I.I.I.",
"I.I.I.I.I.I.I.I.I.I._ ( I.I.Q I.I.I.I.I.I.I.I.I.I.4 , I.I.& I.I.I.I.I.I.I.I.I.r I.I.I.I.I.I.I.I.I.I.I.I.I.I.% % I.I.I.I.I.I.I.I.",
"I.I.I.I.I.I.I.I.I.I._ ( I.I.Q I.I.I.I.I.I.I.I.I.I.I.I.I.= I.I.I.I.I.I.I.I.I.I.r I.I.I.I.I.I.I.I.I.I.I.I.I.I.  I.I.I.I.I.I.I.I.I.",
"I.I.I.I.I.I.I.I.I.I._ ( I.I.$ I.I.I.I.I.I.I.I.I.I.I.I.I.I.I.I.I.I.I.I.I.I.I.I.r I.I.I.I.I.I.I.I.I.I.I.I.I.%   I.I.I.I.I.I.I.I.I.",
"I.I.I.I.I.I.I.I.I.I.( / I.I.$ I.I.I.I.I.I.I.I.I.I.I.I.I.I.I.I.I.I.I.I.I.I.r r r I.I.I.I.I.I.I.I.I.I.I.I.% % I.I.I.I.I.I.I.I.I.I.",
"I.I.I.I.I.I.I.I.I.I.( ^ I.I.$ I.I.I.I.I.I.I.I.I.j x z b m 0 0 8 u i t t t r r r I.I.I.I.I.I.I.I.I.I.I.& % I.I.I.I.I.I.I.I.I.I.I.",
"I.I.I.I.I.I.I.I.I.I.( ^ I.I.$ @ # O X o d f s k l x z b m 9 q 8 u i t t t r r r I.I.I.I.I.I.I.I.I.I.= & I.I.I.I.I.I.I.I.I.I.I.I.",
"I.I.I.I.I.I.I.I.I.I.^ ~ I.I.$ + . O X o f g h k x c z m 3 0 q w u i t t t t r r I.I.I.I.I.I.I.I.- = = I.I.I.I.I.I.I.I.I.I.I.I.I.",
"I.I.I.I.I.I.I.I.I.I.^ ~ ! I.$ + . O X o d s s k x v z m 3 0 q u i i t t r r r I.I.I.5 4 I.I.I.; - = * I.I.I.I.I.I.I.I.I.I.I.I.I.",
"I.I.I.I.I.I.I.I.I.I.^ ~ Q $ # + . X o o f s k l x v b m 3 q w u i t t I.I.I.I.I.7 5 4 2 < 1 > ; - = I.I.I.I.I.I.I.I.I.I.I.I.I.I.",
"I.I.I.I.I.I.I.I.I.I.I.! Q $ # I.I.I.I.I.I.I.I.I.I.I.I.I.I.I.I.I.I.I.I.I.I.I.I.e 6 5 5 < , 1 : - I.I.I.I.I.I.I.I.I.I.I.I.I.I.I.I.",
"I.I.I.I.I.I.I.I.I.I.I.! Q $ + I.I.I.I.I.I.I.I.I.I.I.I.I.I.I.I.I.I.I.I.I.I.r r 7 6 5 4 < , > : I.I.I.I.I.I.I.I.I.I.I.I.I.I.I.I.I.",
"I.I.I.I.I.I.I.I.I.I.I.I.$ $ + . O I.I.I.I.I.I.I.I.I.I.I.I.I.I.I.I.I.I.t t r r 7 5 5 4 < , > I.I.I.I.I.I.I.I.I.I.I.I.I.I.I.I.I.I.",
"I.I.I.I.I.I.I.I.I.I.I.I.I.@ + . O X I.I.I.I.I.I.I.I.I.I.I.I.I.I.I.t t t r r e 7 5 5 2 < 1 I.I.I.I.I.I.I.I.I.I.I.I.I.I.I.I.I.I.I.",
"I.I.I.I.I.I.I.I.I.I.I.I.I.I.+ O X o d f s I.I.I.I.I.I.I.I.I.u i i t t t r r 7 7 5 4 2 I.I.I.I.I.I.I.I.I.I.I.I.I.I.I.I.I.I.I.I.I.",
"I.I.I.I.I.I.I.I.I.I.I.I.I.I.I.O X o d g s k x x z n m 0 q u u u t t t t r r 7 7 5 I.I.I.I.I.I.I.I.I.I.I.I.I.I.I.I.I.I.I.I.I.I.I.",
"I.I.I.I.I.I.I.I.I.I.I.I.I.I.I.I.I.o f g h k x v b m 9 0 q u u i t t r r e e 7 I.I.I.I.I.I.I.I.I.I.I.I.I.I.I.I.I.I.I.I.I.I.I.I.I.",
"I.I.I.I.I.I.I.I.I.I.I.I.I.I.I.I.I.I.I.s k l x z n m 9 0 8 u t t t t r r I.I.I.I.I.I.I.I.I.I.I.I.I.I.I.I.I.I.I.I.I.I.I.I.I.I.I.I.",
"I.I.I.I.I.I.I.I.I.I.I.I.I.I.I.I.I.I.I.I.I.I.x z b m 9 q 8 u i t t I.I.I.I.I.I.I.I.I.I.I.I.I.I.I.I.I.I.I.I.I.I.I.I.I.I.I.I.I.I.I."
};
