/* XPM */
static char *f5ab562097c849e6898e8939c79ebbd5[] = {
/* columns rows colors chars-per-pixel */
"32 32 159 2 ",
"   c #7D0624",
".  c #6F156C",
"X  c #6D166E",
"o  c #771565",
"O  c #761566",
"+  c #791563",
"@  c #791663",
"#  c #7B1662",
"$  c #71156A",
"%  c #6A1771",
"&  c #671875",
"*  c #681873",
"=  c #651A78",
"-  c #631C7B",
";  c #611E7E",
":  c #830A23",
">  c #8C1023",
",  c #8E1123",
"<  c #981723",
"1  c #991723",
"2  c #A41F23",
"3  c #A82223",
"4  c #B02723",
"5  c #B32823",
"6  c #BC2E23",
"7  c #BE3023",
"8  c #BE353E",
"9  c #C23223",
"0  c #C83623",
"q  c #CB3823",
"w  c #CD3A23",
"e  c #CF3B23",
"r  c #D23D23",
"t  c #D13D24",
"y  c #D33E24",
"u  c #D53F24",
"i  c #CB3D37",
"p  c #CE3E36",
"a  c #C1373C",
"s  c #C2373C",
"d  c #C4393B",
"f  c #D03F35",
"g  c #D94225",
"h  c #DB4325",
"j  c #DB4326",
"k  c #DB4426",
"l  c #DC4426",
"z  c #DC4526",
"x  c #DD4527",
"c  c #DD4627",
"v  c #DD4628",
"b  c #DC4629",
"n  c #DE4628",
"m  c #DE4728",
"M  c #DD472B",
"N  c #D8442F",
"B  c #DC462C",
"V  c #DD472C",
"C  c #DC462D",
"Z  c #D24133",
"A  c #D54332",
"S  c #D74430",
"D  c #86195B",
"F  c #82185D",
"G  c #84185C",
"H  c #881A59",
"J  c #941F53",
"K  c #921D54",
"L  c #972051",
"P  c #982051",
"I  c #A4264B",
"U  c #A1254C",
"Y  c #A72849",
"T  c #B32F43",
"R  c #B02D45",
"E  c #B63042",
"W  c #FD7F52",
"Q  c #FB7857",
"!  c #FF7E55",
"~  c #FF7B58",
"^  c #FD795B",
"/  c #FE7C5A",
"(  c #FC4E7F",
")  c #FB5C71",
"_  c #FA5977",
"`  c #FF5A76",
"'  c #FE547E",
"]  c #FE6E64",
"[  c #FD6E67",
"{  c #FD666D",
"}  c #FC666F",
"|  c #FD6B6A",
" . c #FC7363",
".. c #FF7362",
"X. c #FD7660",
"o. c #FC7165",
"O. c #FF6170",
"+. c #FE814E",
"@. c #FE814F",
"#. c #FE8050",
"$. c #FE8053",
"%. c #FE8054",
"&. c #5F2081",
"*. c #5D2183",
"=. c #5B2487",
"-. c #5B2488",
";. c #5A2588",
":. c #59288C",
">. c #572B90",
",. c #562C91",
"<. c #552E94",
"1. c #543096",
"2. c #543196",
"3. c #FC3D90",
"4. c #F5319C",
"5. c #FA339B",
"6. c #FB339E",
"7. c #FD399C",
"8. c #CF2AB8",
"9. c #D42CB7",
"0. c #D226B8",
"q. c #D72ABA",
"w. c #E72DAA",
"e. c #E82AAA",
"r. c #ED2FAB",
"t. c #FE4A83",
"y. c #FE4F84",
"u. c #F9438D",
"i. c #FD408D",
"p. c #FE468E",
"a. c #FF4090",
"s. c #BF2BC5",
"d. c #B632D8",
"f. c #B830D8",
"g. c #AA3AE8",
"h. c #AE3CEB",
"j. c #AE3EEB",
"k. c #AB3BEC",
"l. c #C028C4",
"z. c #C42DC5",
"x. c #C62AC9",
"c. c #9F4FF0",
"v. c #9E4BF8",
"b. c #9658FB",
"n. c #955EF9",
"m. c #975CFE",
"M. c #9959FE",
"N. c #A249FA",
"B. c #A14CFA",
"V. c #8F69FD",
"C. c #9360F8",
"Z. c #916AFE",
"A. c #8A79FD",
"S. c #887AFE",
"D. c #7A96FC",
"F. c #7D9CFD",
"G. c #8088FB",
"H. c #828AFE",
"J. c None",
/* pixels */
"J.J.J.J.J.J.J.J.J.J.J.J.J.J.l.0.e.5.i.y.) J.J.J.J.J.J.J.J.J.J.J.",
"J.J.J.J.J.J.J.J.J.J.J.J.g.f.x.q.r.7.p.' O.[ J.J.J.J.J.J.J.J.J.J.",
"J.J.J.J.J.J.J.J.J.J.b.N.h.J.J.J.J.J.J._ {  .~ J.J.J.J.J.J.J.J.J.",
"J.J.J.J.J.J.J.J.J.V.M.J.J.J.J.J.4.3.t.` { J.! #.J.J.J.J.J.J.J.J.",
"J.J.J.J.J.J.J.G.A.Z.J.J.J.s.8.w.6.a.y.J.| J.W @.J.J.J.J.J.J.J.J.",
"J.J.J.J.J.J.D.H.A.C.v.k.d.z.9.J.J.J.J.J.[ J.@.@.J.J.J.J.J.J.J.J.",
"J.J.J.J.J.J.F.J.J.m.B.j.J.J.J.J.J.J.J.J.o.J.@.J.J.J.J.J.J.J.J.J.",
"J.J.J.J.J.J.J.J.J.J.J.J.J.J.J.J.J.J.J.J. .J.@.J.J.J.J.J.J.J.J.J.",
"J.J.J.J.J.J.J.J.J.J.J.J.J.J.J.J.J.J.J.J.X.W J.J.J.J.J.J.J.J.J.J.",
"J.J.J.J.J.J.J.J.J.J.J.J.J.J.J.J.J.J.J.J.~ %.J.J.J.J.J.J.J.J.J.J.",
"J.J.J.J.J.J.J.J.n.J.J.J.J.J.J.J.J.J.J.J./ J.J.J.J.J.J.J.J.J.J.J.",
"J.J.J.J.J.J.J.J.J.J.J.J.J.J.J.J.J.J.J.J.Q J.J.J.J.J.J.J.J.J.J.J.",
"J.J.J.J.J.J.J.J.J.J.J.J.J.J.J.J.J.J.J.J.J.J.J.J.J.J.J.J.J.J.J.J.",
"J.J.J.J.J.J.J.c.J.J.J.J.J.J.J.J.J.J.J.J.J.J.J.J.J.J.J.J.J.J.J.J.",
"J.J.J.J.J.J.J.J.J.J.u.J.J.J.J.J.J.J.J.J.J.J.J.J.J.J.J.J.J.J.J.J.",
"J.J.J.J.J.J.J.J.J.J.J.J.J.J.J.3 J.J.J.J.J.J.J.J.J.J.J.J.J.J.J.J.",
"J.J.J.J.J.J.J.J.J.J.J.J.J.J.J.J.J.J.J.J.J.J.J.J.J.J.J.J.J.J.J.J.",
"J.J.J.J.J.J.J.J.J.J.J.Z x t J.J.J.J.J.J.J.J.J.J.J.J.J.J.J.J.J.J.",
"J.J.J.J.J.J.J.J.J.J.J.J.J.e J.J.J.J.J.J.J.J.J.J.J.J.J.J.J.J.J.J.",
"J.J.J.J.J.J.J.;.J.J.J.J.J.J.J.J.J.J.J.J.J.J.J.J.J.J.J.J.J.J.J.J.",
"J.J.J.J.J.J.,.-.J.J.J.J.J.J.J.J.J.J.J.m J.J.J.J.J.J.J.J.J.J.J.J.",
"J.J.J.J.J.J.,.*.J.J.J.J.J.J.J.J.J.J.J.x J.J.J.J.J.J.J.J.J.J.J.J.",
"J.J.J.J.J.2.J.J.J.J.J.J.J.J.J.J.J.J.J.x J.J.J.J.J.J.J.J.J.J.J.J.",
"J.J.J.J.J.2.J.J.J.J.J.J.J.J.J.J.J.J.J.x J.J.J.J.J.J.J.  J.J.J.J.",
"J.J.J.J.J.<.J.J.J.J.J.J.J.J.J.J.J.J.J.k J.J.J.J.J.J.: J.J.J.J.J.",
"J.J.J.J.J.>.J.= J.O D K U R 8 p A C x x J.J.J.J.J.> J.J.J.J.J.J.",
"J.J.J.J.J.:.&.& . @ D J I R s p S V x x J.J.J.J.< > J.J.J.J.J.J.",
"J.J.J.J.J.=.; & $ # H L J.J.J.J.J.J.J.J.q 9 5 2 < J.J.J.J.J.J.J.",
"J.J.J.J.J.J.- % J.J.J.J.J.J.J.J.J.J.x g q 7 4 J.J.J.J.J.J.J.J.J.",
"J.J.J.J.J.J.J.. O F J.J.J.J.J.J.C x j t 0 7 J.J.J.J.J.J.J.J.J.J.",
"J.J.J.J.J.J.J.J.@ D J I E a p A V x j t J.J.J.J.J.J.J.J.J.J.J.J.",
"J.J.J.J.J.J.J.J.J.J.P Y E d Z A m x J.J.J.J.J.J.J.J.J.J.J.J.J.J."
};
